<svg id="Calque_1" data-name="Calque 1" xmlns="http://www.w3.org/2000/svg" viewBox="0 0 1920 1080">
  <defs>
    <style>
      .cls-1 {
        fill: #69ff69;
      }
    </style>
  </defs>
  <title>fond_credit</title>
  <polygon class="cls-1" points="1352.76 303 1655.76 0 1584.81 0 1281.81 303 1352.76 303"/>
  <polygon class="cls-1" points="1211.6 303 1514.59 0 1443.64 0 1140.64 303 1211.6 303"/>
  <polygon class="cls-1" points="1070.42 303 1373.42 0 1302.47 0 999.47 303 1070.42 303"/>
  <polygon class="cls-1" points="929.25 303 1232.26 0 1161.3 0 858.3 303 929.25 303"/>
  <polygon class="cls-1" points="788.08 303 1091.08 0 1020.13 0 717.13 303 788.08 303"/>
  <polygon class="cls-1" points="646.91 303 949.91 0 878.96 0 575.96 303 646.91 303"/>
  <polygon class="cls-1" points="505.74 303 808.75 0 737.79 0 434.79 303 505.74 303"/>
  <polygon class="cls-1" points="364.58 303 667.58 0 596.62 0 293.62 303 364.58 303"/>
  <polygon class="cls-1" points="223.41 303 526.4 0 455.45 0 152.45 303 223.41 303"/>
  <polygon class="cls-1" points="82.24 303 385.24 0 314.28 0 11.28 303 82.24 303"/>
  <polygon class="cls-1" points="1514.59 606 1581.98 606 1278.98 303 1208.03 303 1511.03 606 1443.64 606 1140.64 909 1211.6 909 1514.59 606"/>
  <polygon class="cls-1" points="1373.42 606 1440.81 606 1137.81 303 1066.86 303 1369.86 606 1302.47 606 999.47 909 1070.42 909 1373.42 606"/>
  <polygon class="cls-1" points="1232.25 606 1299.64 606 996.64 303 925.69 303 1228.69 606 1161.3 606 858.3 909 929.25 909 1232.25 606"/>
  <polygon class="cls-1" points="1091.08 606 1158.47 606 855.47 303 784.52 303 1087.52 606 1020.13 606 717.13 909 788.08 909 1091.08 606"/>
  <polygon class="cls-1" points="949.91 606 1017.3 606 714.3 303 643.35 303 946.35 606 878.96 606 575.96 909 646.91 909 949.91 606"/>
  <polygon class="cls-1" points="808.75 606 876.13 606 573.13 303 502.18 303 805.18 606 737.79 606 434.79 909 505.74 909 808.75 606"/>
  <polygon class="cls-1" points="667.57 606 734.96 606 431.96 303 361.01 303 664.01 606 596.62 606 293.62 909 364.58 909 667.57 606"/>
  <polygon class="cls-1" points="526.4 606 593.79 606 290.79 303 219.84 303 522.84 606 455.45 606 152.45 909 223.41 909 526.4 606"/>
  <polygon class="cls-1" points="385.24 606 452.62 606 149.62 303 78.67 303 381.67 606 314.28 606 11.28 909 82.24 909 385.24 606"/>
  <polygon class="cls-1" points="1493.93 303 1796.93 0 1725.98 0 1422.98 303 1493.93 303"/>
  <polygon class="cls-1" points="1422.98 909 1493.93 909 1796.93 606 1864.32 606 1561.32 303 1490.37 303 1793.37 606 1725.98 606 1422.98 909"/>
  <polygon class="cls-1" points="1723.15 606 1420.15 303 1349.2 303 1652.19 606 1723.15 606"/>
  <polygon class="cls-1" points="1167.65 1080 996.64 909 925.69 909 1096.69 1080 1167.65 1080"/>
  <polygon class="cls-1" points="0 506.67 99.33 606 31.94 606 0 637.94 0 708.89 102.89 606 170.28 606 0 435.71 0 506.67"/>
  <polygon class="cls-1" points="0 365.5 240.5 606 173.11 606 0 779.11 0 850.06 244.07 606 311.45 606 8.45 303 0 303 0 365.5"/>
  <polygon class="cls-1" points="0 1080 38.29 1080 0 1041.71 0 1080"/>
  <polygon class="cls-1" points="0 971.5 108.5 1080 179.46 1080 8.45 909 0 909 0 971.5"/>
  <polygon class="cls-1" points="320.63 1080 149.62 909 78.67 909 249.67 1080 320.63 1080"/>
  <polygon class="cls-1" points="461.8 1080 290.79 909 219.84 909 390.84 1080 461.8 1080"/>
  <polygon class="cls-1" points="602.97 1080 431.96 909 361.01 909 532.01 1080 602.97 1080"/>
  <polygon class="cls-1" points="744.14 1080 573.13 909 502.18 909 673.18 1080 744.14 1080"/>
  <polygon class="cls-1" points="885.31 1080 714.3 909 643.35 909 814.35 1080 885.31 1080"/>
  <polygon class="cls-1" points="1026.48 1080 855.47 909 784.52 909 955.52 1080 1026.48 1080"/>
  <polygon class="cls-1" points="1920 985.34 1843.66 909 1772.71 909 1920 1056.29 1920 985.34"/>
  <polygon class="cls-1" points="1873.49 1080 1702.49 909 1631.54 909 1802.54 1080 1873.49 1080"/>
  <polygon class="cls-1" points="1732.33 1080 1561.32 909 1490.37 909 1661.37 1080 1732.33 1080"/>
  <polygon class="cls-1" points="1520.2 1080 1591.16 1080 1420.15 909 1352.76 909 1655.76 606 1584.81 606 1281.81 909 1349.2 909 1520.2 1080"/>
  <polygon class="cls-1" points="1449.99 1080 1278.98 909 1208.03 909 1379.03 1080 1449.99 1080"/>
  <polygon class="cls-1" points="1308.82 1080 1137.81 909 1066.86 909 1237.86 1080 1308.82 1080"/>
  <polygon class="cls-1" points="1920 18.1 1920 0 1867.15 0 1564.15 303 1635.1 303 1920 18.1"/>
  <polygon class="cls-1" points="1920 159.27 1920 88.32 1705.32 303 1776.27 303 1920 159.27"/>
  <polygon class="cls-1" points="1920 300.44 1920 229.49 1846.49 303 1917.44 303 1920 300.44"/>
  <g>
    <polygon class="cls-1" points="1920 520.51 1702.49 303 1631.54 303 1920 591.46 1920 520.51"/>
    <polygon class="cls-1" points="1920 624.1 1920 606 1867.15 606 1564.15 909 1635.1 909 1920 624.1"/>
  </g>
  <g>
    <polygon class="cls-1" points="1920 379.34 1843.66 303 1772.71 303 1920 450.29 1920 379.34"/>
    <polygon class="cls-1" points="1920 765.27 1920 694.32 1705.32 909 1776.27 909 1920 765.27"/>
  </g>
  <polygon class="cls-1" points="1920 906.44 1920 835.49 1846.49 909 1917.44 909 1920 906.44"/>
  <polygon class="cls-1" points="0 606 29.11 606 0 576.88 0 606"/>
  <polygon class="cls-1" points="0 102.89 102.9 0 31.94 0 0 31.94 0 102.89"/>
  <polygon class="cls-1" points="0 244.06 244.07 0 173.11 0 0 173.11 0 244.06"/>
</svg>
