<?xml version="1.0" encoding="utf-8"?>
<!-- Generator: Adobe Illustrator 21.1.0, SVG Export Plug-In . SVG Version: 6.00 Build 0)  -->
<svg version="1.1" id="Calque_1" xmlns="http://www.w3.org/2000/svg" xmlns:xlink="http://www.w3.org/1999/xlink" x="0px" y="0px"
	 viewBox="0 0 1920 1620" style="enable-background:new 0 0 1920 1620;" xml:space="preserve">
<style type="text/css">
	.st0{fill:#69FF69;}
</style>
<polygon class="st0" points="1352.8,302.2 1655.8,-0.8 1584.8,-0.8 1281.8,302.2 "/>
<polygon class="st0" points="1211.6,302.2 1514.6,-0.8 1443.6,-0.8 1140.6,302.2 "/>
<polygon class="st0" points="1070.4,302.2 1373.4,-0.8 1302.5,-0.8 999.5,302.2 "/>
<polygon class="st0" points="929.3,302.2 1232.3,-0.8 1161.3,-0.8 858.3,302.2 "/>
<polygon class="st0" points="788.1,302.2 1091.1,-0.8 1020.1,-0.8 717.1,302.2 "/>
<polygon class="st0" points="646.9,302.2 949.9,-0.8 879,-0.8 576,302.2 "/>
<polygon class="st0" points="505.7,302.2 808.7,-0.8 737.8,-0.8 434.8,302.2 "/>
<polygon class="st0" points="364.6,302.2 667.6,-0.8 596.6,-0.8 293.6,302.2 "/>
<polygon class="st0" points="223.4,302.2 526.4,-0.8 455.5,-0.8 152.5,302.2 "/>
<polygon class="st0" points="82.2,302.2 385.2,-0.8 314.3,-0.8 11.3,302.2 "/>
<polygon class="st0" points="1514.6,605.2 1582,605.2 1279,302.2 1208,302.2 1511,605.2 1443.6,605.2 1140.6,908.2 1211.6,908.2 "/>
<polygon class="st0" points="1373.4,605.2 1440.8,605.2 1137.8,302.2 1066.9,302.2 1369.9,605.2 1302.5,605.2 999.5,908.2 
	1070.4,908.2 "/>
<polygon class="st0" points="1232.3,605.2 1299.6,605.2 996.6,302.2 925.7,302.2 1228.7,605.2 1161.3,605.2 858.3,908.2 
	929.3,908.2 "/>
<polygon class="st0" points="1091.1,605.2 1158.5,605.2 855.5,302.2 784.5,302.2 1087.5,605.2 1020.1,605.2 717.1,908.2 
	788.1,908.2 "/>
<polygon class="st0" points="949.9,605.2 1017.3,605.2 714.3,302.2 643.3,302.2 946.3,605.2 879,605.2 576,908.2 646.9,908.2 "/>
<polygon class="st0" points="808.7,605.2 876.1,605.2 573.1,302.2 502.2,302.2 805.2,605.2 737.8,605.2 434.8,908.2 505.7,908.2 "/>
<polygon class="st0" points="667.6,605.2 735,605.2 432,302.2 361,302.2 664,605.2 596.6,605.2 293.6,908.2 364.6,908.2 "/>
<polygon class="st0" points="526.4,605.2 593.8,605.2 290.8,302.2 219.8,302.2 522.8,605.2 455.5,605.2 152.5,908.2 223.4,908.2 "/>
<polygon class="st0" points="385.2,605.2 452.6,605.2 149.6,302.2 78.7,302.2 381.7,605.2 314.3,605.2 11.3,908.2 82.2,908.2 "/>
<polygon class="st0" points="1493.9,302.2 1796.9,-0.8 1726,-0.8 1423,302.2 "/>
<polygon class="st0" points="1423,908.2 1493.9,908.2 1796.9,605.2 1864.3,605.2 1561.3,302.2 1490.4,302.2 1793.4,605.2 
	1726,605.2 "/>
<polygon class="st0" points="1723.2,605.2 1420.2,302.2 1349.2,302.2 1652.2,605.2 "/>
<polygon class="st0" points="1167.6,1079.2 996.6,908.2 925.7,908.2 1096.7,1079.2 "/>
<polygon class="st0" points="0,505.9 99.3,605.2 31.9,605.2 0,637.2 0,708.1 102.9,605.2 170.3,605.2 0,435 "/>
<polygon class="st0" points="0,364.7 240.5,605.2 173.1,605.2 0,778.4 0,849.3 244.1,605.2 311.5,605.2 8.5,302.2 0,302.2 "/>
<polygon class="st0" points="0,1079.2 38.3,1079.2 0,1041 "/>
<polygon class="st0" points="0,970.7 108.5,1079.2 179.5,1079.2 8.5,908.2 0,908.2 "/>
<polygon class="st0" points="320.6,1079.2 149.6,908.2 78.7,908.2 249.7,1079.2 "/>
<polygon class="st0" points="461.8,1079.2 290.8,908.2 219.8,908.2 390.8,1079.2 "/>
<polygon class="st0" points="603,1079.2 432,908.2 361,908.2 532,1079.2 "/>
<polygon class="st0" points="744.1,1079.2 573.1,908.2 502.2,908.2 673.2,1079.2 "/>
<polygon class="st0" points="885.3,1079.2 714.3,908.2 643.3,908.2 814.4,1079.2 "/>
<polygon class="st0" points="1026.5,1079.2 855.5,908.2 784.5,908.2 955.5,1079.2 "/>
<polygon class="st0" points="1920,984.6 1843.7,908.2 1772.7,908.2 1920,1055.5 "/>
<polygon class="st0" points="1873.5,1079.2 1702.5,908.2 1631.5,908.2 1802.5,1079.2 "/>
<polygon class="st0" points="1732.3,1079.2 1561.3,908.2 1490.4,908.2 1661.4,1079.2 "/>
<polygon class="st0" points="1520.2,1079.2 1591.2,1079.2 1420.2,908.2 1352.8,908.2 1655.8,605.2 1584.8,605.2 1281.8,908.2 
	1349.2,908.2 "/>
<polygon class="st0" points="1450,1079.2 1279,908.2 1208,908.2 1379,1079.2 "/>
<polygon class="st0" points="1308.8,1079.2 1137.8,908.2 1066.9,908.2 1237.9,1079.2 "/>
<polygon class="st0" points="1920,17.3 1920,-0.8 1867.1,-0.8 1564.2,302.2 1635.1,302.2 "/>
<polygon class="st0" points="1920,158.5 1920,87.6 1705.3,302.2 1776.3,302.2 "/>
<polygon class="st0" points="1920,299.7 1920,228.7 1846.5,302.2 1917.4,302.2 "/>
<g>
	<polygon class="st0" points="1920,519.8 1702.5,302.2 1631.5,302.2 1920,590.7 	"/>
	<polygon class="st0" points="1920,623.3 1920,605.2 1867.1,605.2 1564.2,908.2 1635.1,908.2 	"/>
</g>
<g>
	<polygon class="st0" points="1920,378.6 1843.7,302.2 1772.7,302.2 1920,449.5 	"/>
	<polygon class="st0" points="1920,764.5 1920,693.6 1705.3,908.2 1776.3,908.2 	"/>
</g>
<polygon class="st0" points="1920,905.7 1920,834.7 1846.5,908.2 1917.4,908.2 "/>
<polygon class="st0" points="0,605.2 29.1,605.2 0,576.1 "/>
<polygon class="st0" points="1514.6,1211.2 1582,1211.2 1279,908.2 1208,908.2 1511,1211.2 1443.6,1211.2 1140.6,1514.2 
	1211.6,1514.2 "/>
<polygon class="st0" points="1373.4,1211.2 1440.8,1211.2 1137.8,908.2 1066.9,908.2 1369.9,1211.2 1302.5,1211.2 999.5,1514.2 
	1070.4,1514.2 "/>
<polygon class="st0" points="1232.3,1211.2 1299.6,1211.2 996.6,908.2 925.7,908.2 1228.7,1211.2 1161.3,1211.2 858.3,1514.2 
	929.3,1514.2 "/>
<polygon class="st0" points="1091.1,1211.2 1158.5,1211.2 855.5,908.2 784.5,908.2 1087.5,1211.2 1020.1,1211.2 717.1,1514.2 
	788.1,1514.2 "/>
<polygon class="st0" points="949.9,1211.2 1017.3,1211.2 714.3,908.2 643.3,908.2 946.3,1211.2 879,1211.2 576,1514.2 646.9,1514.2 
	"/>
<polygon class="st0" points="808.7,1211.2 876.1,1211.2 573.1,908.2 502.2,908.2 805.2,1211.2 737.8,1211.2 434.8,1514.2 
	505.7,1514.2 "/>
<polygon class="st0" points="667.6,1211.2 735,1211.2 432,908.2 361,908.2 664,1211.2 596.6,1211.2 293.6,1514.2 364.6,1514.2 "/>
<polygon class="st0" points="526.4,1211.2 593.8,1211.2 290.8,908.2 219.8,908.2 522.8,1211.2 455.5,1211.2 152.5,1514.2 
	223.4,1514.2 "/>
<polygon class="st0" points="385.2,1211.2 452.6,1211.2 149.6,908.2 78.7,908.2 381.7,1211.2 314.3,1211.2 11.3,1514.2 82.2,1514.2 
	"/>
<polygon class="st0" points="1423,1514.2 1493.9,1514.2 1796.9,1211.2 1864.3,1211.2 1561.3,908.2 1490.4,908.2 1793.4,1211.2 
	1726,1211.2 "/>
<polygon class="st0" points="1723.2,1211.2 1420.2,908.2 1349.2,908.2 1652.2,1211.2 "/>
<polygon class="st0" points="1167.6,1685.2 996.6,1514.2 925.7,1514.2 1096.7,1685.2 "/>
<polygon class="st0" points="0,1111.9 99.3,1211.2 31.9,1211.2 0,1243.2 0,1314.1 102.9,1211.2 170.3,1211.2 0,1041 "/>
<polygon class="st0" points="0,970.7 240.5,1211.2 173.1,1211.2 0,1384.3 0,1455.3 244.1,1211.2 311.5,1211.2 8.5,908.2 0,908.2 "/>
<polygon class="st0" points="0,1576.7 108.5,1685.2 179.5,1685.2 8.5,1514.2 0,1514.2 "/>
<polygon class="st0" points="320.6,1685.2 149.6,1514.2 78.7,1514.2 249.7,1685.2 "/>
<polygon class="st0" points="461.8,1685.2 290.8,1514.2 219.8,1514.2 390.8,1685.2 "/>
<polygon class="st0" points="603,1685.2 432,1514.2 361,1514.2 532,1685.2 "/>
<polygon class="st0" points="744.1,1685.2 573.1,1514.2 502.2,1514.2 673.2,1685.2 "/>
<polygon class="st0" points="885.3,1685.2 714.3,1514.2 643.3,1514.2 814.4,1685.2 "/>
<polygon class="st0" points="1026.5,1685.2 855.5,1514.2 784.5,1514.2 955.5,1685.2 "/>
<polygon class="st0" points="1920,1590.6 1843.7,1514.2 1772.7,1514.2 1920,1661.5 "/>
<polygon class="st0" points="1873.5,1685.2 1702.5,1514.2 1631.5,1514.2 1802.5,1685.2 "/>
<polygon class="st0" points="1732.3,1685.2 1561.3,1514.2 1490.4,1514.2 1661.4,1685.2 "/>
<polygon class="st0" points="1520.2,1685.2 1591.2,1685.2 1420.2,1514.2 1352.8,1514.2 1655.8,1211.2 1584.8,1211.2 1281.8,1514.2 
	1349.2,1514.2 "/>
<polygon class="st0" points="1450,1685.2 1279,1514.2 1208,1514.2 1379,1685.2 "/>
<polygon class="st0" points="1308.8,1685.2 1137.8,1514.2 1066.9,1514.2 1237.9,1685.2 "/>
<g>
	<polygon class="st0" points="1920,1125.7 1702.5,908.2 1631.5,908.2 1920,1196.7 	"/>
	<polygon class="st0" points="1920,1229.3 1920,1211.2 1867.1,1211.2 1564.2,1514.2 1635.1,1514.2 	"/>
</g>
<g>
	<polygon class="st0" points="1920,984.6 1843.7,908.2 1772.7,908.2 1920,1055.5 	"/>
	<polygon class="st0" points="1920,1370.5 1920,1299.6 1705.3,1514.2 1776.3,1514.2 	"/>
</g>
<polygon class="st0" points="1920,1511.7 1920,1440.7 1846.5,1514.2 1917.4,1514.2 "/>
<polygon class="st0" points="0,1211.2 29.1,1211.2 0,1182.1 "/>
<polygon class="st0" points="0,102.1 102.9,-0.8 31.9,-0.8 0,31.2 "/>
<polygon class="st0" points="0,243.3 244.1,-0.8 173.1,-0.8 0,172.4 "/>
</svg>
