<?xml version="1.0" encoding="utf-8"?>
<!-- Generator: Adobe Illustrator 21.1.0, SVG Export Plug-In . SVG Version: 6.00 Build 0)  -->
<svg version="1.1" id="Calque_1" xmlns="http://www.w3.org/2000/svg" xmlns:xlink="http://www.w3.org/1999/xlink" x="0px" y="0px"
	 viewBox="0 0 1920 1686" style="enable-background:new 0 0 1920 1686;" xml:space="preserve">
<style type="text/css">
	.st0{fill:#69FF69;}
</style>
<polygon class="st0" points="1352.8,303 1655.8,0 1584.8,0 1281.8,303 "/>
<polygon class="st0" points="1211.6,303 1514.6,0 1443.6,0 1140.6,303 "/>
<polygon class="st0" points="1070.4,303 1373.4,0 1302.5,0 999.5,303 "/>
<polygon class="st0" points="929.3,303 1232.3,0 1161.3,0 858.3,303 "/>
<polygon class="st0" points="788.1,303 1091.1,0 1020.1,0 717.1,303 "/>
<polygon class="st0" points="646.9,303 949.9,0 879,0 576,303 "/>
<polygon class="st0" points="505.7,303 808.7,0 737.8,0 434.8,303 "/>
<polygon class="st0" points="364.6,303 667.6,0 596.6,0 293.6,303 "/>
<polygon class="st0" points="223.4,303 526.4,0 455.5,0 152.5,303 "/>
<polygon class="st0" points="82.2,303 385.2,0 314.3,0 11.3,303 "/>
<polygon class="st0" points="1514.6,606 1582,606 1279,303 1208,303 1511,606 1443.6,606 1140.6,909 1211.6,909 "/>
<polygon class="st0" points="1373.4,606 1440.8,606 1137.8,303 1066.9,303 1369.9,606 1302.5,606 999.5,909 1070.4,909 "/>
<polygon class="st0" points="1232.3,606 1299.6,606 996.6,303 925.7,303 1228.7,606 1161.3,606 858.3,909 929.3,909 "/>
<polygon class="st0" points="1091.1,606 1158.5,606 855.5,303 784.5,303 1087.5,606 1020.1,606 717.1,909 788.1,909 "/>
<polygon class="st0" points="949.9,606 1017.3,606 714.3,303 643.3,303 946.3,606 879,606 576,909 646.9,909 "/>
<polygon class="st0" points="808.7,606 876.1,606 573.1,303 502.2,303 805.2,606 737.8,606 434.8,909 505.7,909 "/>
<polygon class="st0" points="667.6,606 735,606 432,303 361,303 664,606 596.6,606 293.6,909 364.6,909 "/>
<polygon class="st0" points="526.4,606 593.8,606 290.8,303 219.8,303 522.8,606 455.5,606 152.5,909 223.4,909 "/>
<polygon class="st0" points="385.2,606 452.6,606 149.6,303 78.7,303 381.7,606 314.3,606 11.3,909 82.2,909 "/>
<polygon class="st0" points="1493.9,303 1796.9,0 1726,0 1423,303 "/>
<polygon class="st0" points="1423,909 1493.9,909 1796.9,606 1864.3,606 1561.3,303 1490.4,303 1793.4,606 1726,606 "/>
<polygon class="st0" points="1723.2,606 1420.2,303 1349.2,303 1652.2,606 "/>
<polygon class="st0" points="1167.6,1080 996.6,909 925.7,909 1096.7,1080 "/>
<polygon class="st0" points="0,506.7 99.3,606 31.9,606 0,637.9 0,708.9 102.9,606 170.3,606 0,435.7 "/>
<polygon class="st0" points="0,365.5 240.5,606 173.1,606 0,779.1 0,850.1 244.1,606 311.5,606 8.5,303 0,303 "/>
<polygon class="st0" points="0,1080 38.3,1080 0,1041.7 "/>
<polygon class="st0" points="0,971.5 108.5,1080 179.5,1080 8.5,909 0,909 "/>
<polygon class="st0" points="320.6,1080 149.6,909 78.7,909 249.7,1080 "/>
<polygon class="st0" points="461.8,1080 290.8,909 219.8,909 390.8,1080 "/>
<polygon class="st0" points="603,1080 432,909 361,909 532,1080 "/>
<polygon class="st0" points="744.1,1080 573.1,909 502.2,909 673.2,1080 "/>
<polygon class="st0" points="885.3,1080 714.3,909 643.3,909 814.4,1080 "/>
<polygon class="st0" points="1026.5,1080 855.5,909 784.5,909 955.5,1080 "/>
<polygon class="st0" points="1920,985.3 1843.7,909 1772.7,909 1920,1056.3 "/>
<polygon class="st0" points="1873.5,1080 1702.5,909 1631.5,909 1802.5,1080 "/>
<polygon class="st0" points="1732.3,1080 1561.3,909 1490.4,909 1661.4,1080 "/>
<polygon class="st0" points="1520.2,1080 1591.2,1080 1420.2,909 1352.8,909 1655.8,606 1584.8,606 1281.8,909 1349.2,909 "/>
<polygon class="st0" points="1450,1080 1279,909 1208,909 1379,1080 "/>
<polygon class="st0" points="1308.8,1080 1137.8,909 1066.9,909 1237.9,1080 "/>
<polygon class="st0" points="1920,18.1 1920,0 1867.1,0 1564.2,303 1635.1,303 "/>
<polygon class="st0" points="1920,159.3 1920,88.3 1705.3,303 1776.3,303 "/>
<polygon class="st0" points="1920,300.4 1920,229.5 1846.5,303 1917.4,303 "/>
<g>
	<polygon class="st0" points="1920,520.5 1702.5,303 1631.5,303 1920,591.5 	"/>
	<polygon class="st0" points="1920,624.1 1920,606 1867.1,606 1564.2,909 1635.1,909 	"/>
</g>
<g>
	<polygon class="st0" points="1920,379.3 1843.7,303 1772.7,303 1920,450.3 	"/>
	<polygon class="st0" points="1920,765.3 1920,694.3 1705.3,909 1776.3,909 	"/>
</g>
<polygon class="st0" points="1920,906.4 1920,835.5 1846.5,909 1917.4,909 "/>
<polygon class="st0" points="0,606 29.1,606 0,576.9 "/>
<polygon class="st0" points="1514.6,1212 1582,1212 1279,909 1208,909 1511,1212 1443.6,1212 1140.6,1515 1211.6,1515 "/>
<polygon class="st0" points="1373.4,1212 1440.8,1212 1137.8,909 1066.9,909 1369.9,1212 1302.5,1212 999.5,1515 1070.4,1515 "/>
<polygon class="st0" points="1232.3,1212 1299.6,1212 996.6,909 925.7,909 1228.7,1212 1161.3,1212 858.3,1515 929.3,1515 "/>
<polygon class="st0" points="1091.1,1212 1158.5,1212 855.5,909 784.5,909 1087.5,1212 1020.1,1212 717.1,1515 788.1,1515 "/>
<polygon class="st0" points="949.9,1212 1017.3,1212 714.3,909 643.3,909 946.3,1212 879,1212 576,1515 646.9,1515 "/>
<polygon class="st0" points="808.7,1212 876.1,1212 573.1,909 502.2,909 805.2,1212 737.8,1212 434.8,1515 505.7,1515 "/>
<polygon class="st0" points="667.6,1212 735,1212 432,909 361,909 664,1212 596.6,1212 293.6,1515 364.6,1515 "/>
<polygon class="st0" points="526.4,1212 593.8,1212 290.8,909 219.8,909 522.8,1212 455.5,1212 152.5,1515 223.4,1515 "/>
<polygon class="st0" points="385.2,1212 452.6,1212 149.6,909 78.7,909 381.7,1212 314.3,1212 11.3,1515 82.2,1515 "/>
<polygon class="st0" points="1423,1515 1493.9,1515 1796.9,1212 1864.3,1212 1561.3,909 1490.4,909 1793.4,1212 1726,1212 "/>
<polygon class="st0" points="1723.2,1212 1420.2,909 1349.2,909 1652.2,1212 "/>
<polygon class="st0" points="1167.6,1686 996.6,1515 925.7,1515 1096.7,1686 "/>
<polygon class="st0" points="0,1112.7 99.3,1212 31.9,1212 0,1243.9 0,1314.9 102.9,1212 170.3,1212 0,1041.7 "/>
<polygon class="st0" points="0,971.5 240.5,1212 173.1,1212 0,1385.1 0,1456.1 244.1,1212 311.5,1212 8.5,909 0,909 "/>
<polygon class="st0" points="0,1686 38.3,1686 0,1647.7 "/>
<polygon class="st0" points="0,1577.5 108.5,1686 179.5,1686 8.5,1515 0,1515 "/>
<polygon class="st0" points="320.6,1686 149.6,1515 78.7,1515 249.7,1686 "/>
<polygon class="st0" points="461.8,1686 290.8,1515 219.8,1515 390.8,1686 "/>
<polygon class="st0" points="603,1686 432,1515 361,1515 532,1686 "/>
<polygon class="st0" points="744.1,1686 573.1,1515 502.2,1515 673.2,1686 "/>
<polygon class="st0" points="885.3,1686 714.3,1515 643.3,1515 814.4,1686 "/>
<polygon class="st0" points="1026.5,1686 855.5,1515 784.5,1515 955.5,1686 "/>
<polygon class="st0" points="1920,1591.3 1843.7,1515 1772.7,1515 1920,1662.3 "/>
<polygon class="st0" points="1873.5,1686 1702.5,1515 1631.5,1515 1802.5,1686 "/>
<polygon class="st0" points="1732.3,1686 1561.3,1515 1490.4,1515 1661.4,1686 "/>
<polygon class="st0" points="1520.2,1686 1591.2,1686 1420.2,1515 1352.8,1515 1655.8,1212 1584.8,1212 1281.8,1515 1349.2,1515 "/>
<polygon class="st0" points="1450,1686 1279,1515 1208,1515 1379,1686 "/>
<polygon class="st0" points="1308.8,1686 1137.8,1515 1066.9,1515 1237.9,1686 "/>
<g>
	<polygon class="st0" points="1920,1126.5 1702.5,909 1631.5,909 1920,1197.5 	"/>
	<polygon class="st0" points="1920,1230.1 1920,1212 1867.1,1212 1564.2,1515 1635.1,1515 	"/>
</g>
<g>
	<polygon class="st0" points="1920,985.3 1843.7,909 1772.7,909 1920,1056.3 	"/>
	<polygon class="st0" points="1920,1371.3 1920,1300.3 1705.3,1515 1776.3,1515 	"/>
</g>
<polygon class="st0" points="1920,1512.4 1920,1441.5 1846.5,1515 1917.4,1515 "/>
<polygon class="st0" points="0,1212 29.1,1212 0,1182.9 "/>
<polygon class="st0" points="0,102.9 102.9,0 31.9,0 0,31.9 "/>
<polygon class="st0" points="0,244.1 244.1,0 173.1,0 0,173.1 "/>
</svg>
